<?xml version="1.0" encoding="utf-8"?>
<!-- Generator: Adobe Illustrator 24.1.1, SVG Export Plug-In . SVG Version: 6.00 Build 0)  -->
<svg version="1.1" id="Layer_1" xmlns="http://www.w3.org/2000/svg" xmlns:xlink="http://www.w3.org/1999/xlink" x="0px" y="0px"
	 viewBox="0 0 48.82 61" style="enable-background:new 0 0 48.82 61;" xml:space="preserve">
<style type="text/css">
	.st0{clip-path:url(#SVGID_2_);}
</style>
<g>
	<g>
		<defs>
			<rect id="SVGID_1_" x="6.82" y="5" width="75.84" height="57"/>
		</defs>
		<clipPath id="SVGID_2_">
			<use xlink:href="#SVGID_1_"  style="overflow:visible;"/>
		</clipPath>
		<path class="st0" d="M42.66,32.81c0-0.42-0.17-0.83-0.47-1.13L15.98,5.47c-0.63-0.63-1.64-0.63-2.26,0l-6.43,6.42
			c-0.3,0.3-0.47,0.71-0.47,1.13c0,0.42,0.17,0.83,0.47,1.13l18.66,18.66L7.29,51.46c-0.3,0.3-0.47,0.71-0.47,1.13
			c0,0.42,0.17,0.83,0.47,1.13l6.43,6.43c0.31,0.31,0.72,0.47,1.13,0.47c0.41,0,0.82-0.16,1.13-0.47l26.21-26.21
			C42.49,33.64,42.66,33.23,42.66,32.81L42.66,32.81z M42.66,32.81"/>
	</g>
</g>
</svg>
